<svg width="630" height="500" xmlns="http://www.w3.org/2000/svg">
  <rect width="630" height="500" fill="#0d1117" rx="15"/>
  <rect x="20" y="20" width="590" height="460" fill="#161b22" rx="12"
        stroke="#30363d" stroke-width="1"/>

  <g><rect x="45.0" y="10" width="150" height="35" rx="17.5" fill="#f59e0b" opacity="0.9" stroke="#30363d" stroke-width="1.5"/><text x="120" y="33" text-anchor="middle" fill="#f0f6fc" font-size="12" font-weight="bold">🧹 Refactor</text></g>
  <text x="40" y="75" fill="#f0f6fc" font-size="18" font-weight="bold">
    🧙‍♂️ CODEY Level 5
  </text>
  
  <text x="417.5" y="48" text-anchor="middle" fill="#f0f6fc" font-size="20">👑</text><text x="462.5" y="48" text-anchor="middle" fill="#f0f6fc" font-size="20">💎</text><text x="507.5" y="48" text-anchor="middle" fill="#f0f6fc" font-size="20">💀</text><text x="552.5" y="48" text-anchor="middle" fill="#f0f6fc" font-size="20">🎯</text>

  <!-- Pet area -->
  <g transform="translate(0, 84)">
    <circle cx="120" cy="150" r="57.5" fill="#21262d"
            stroke="#f59e0b" stroke-width="3"/>
    <text x="120" y="176" text-anchor="middle" font-size="65">🐍</text>
    <circle cx="120" cy="225" r="25" fill="#21262d"
            stroke="#30363d" stroke-width="1"/>
    <text x="120" y="230" text-anchor="middle" font-size="25">
      😵
    </text>
    <text x="120" y="260" text-anchor="middle"
          fill="#8b949e" font-size="11">
      Exhausted • 10.0y
    </text>
  </g>

  <!-- Stat bars -->
  <g transform="translate(205, 120)">
    <text x="0" y="20"   fill="#f0f6fc" font-weight="bold" font-size="14">❤️ Health</text>
    <text x="330" y="20" fill="#8b949e" font-size="12" text-anchor="end">33%</text>
    <rect x="0" y="25"   width="330" height="12" fill="#21262d" rx="6"/>
    <rect x="0" y="25"   width="110.0" height="12" fill="#f85149" rx="6"/>

    <text x="0" y="55"   fill="#f0f6fc" font-weight="bold" font-size="14">🍖 Hunger</text>
    <text x="330" y="55" fill="#8b949e" font-size="12" text-anchor="end">100%</text>
    <rect x="0" y="60"   width="330" height="12" fill="#21262d" rx="6"/>
    <rect x="0" y="60"   width="330" height="12" fill="#ffa657" rx="6"/>

    <text x="0" y="90"   fill="#f0f6fc" font-weight="bold" font-size="14">😊 Happiness</text>
    <text x="330" y="90" fill="#8b949e" font-size="12" text-anchor="end">0%</text>
    <rect x="0" y="95"   width="330" height="12" fill="#21262d" rx="6"/>
    <rect x="0" y="95"   width="0.0" height="12" fill="#a855f7" rx="6"/>

    <text x="0" y="125"   fill="#f0f6fc" font-weight="bold" font-size="14">⚡ Energy</text>
    <text x="330" y="125" fill="#8b949e" font-size="12" text-anchor="end">0%</text>
    <rect x="0" y="130"   width="330" height="12" fill="#21262d" rx="6"/>
    <rect x="0" y="130"   width="0.0" height="12" fill="#3fb950" rx="6"/>

    <text x="0" y="160"   fill="#f0f6fc" font-weight="bold" font-size="14">👥 Social</text>
    <text x="330" y="160" fill="#8b949e" font-size="12" text-anchor="end">1.25</text>
    <rect x="0" y="165"   width="330" height="12" fill="#21262d" rx="6"/>
    <rect x="0" y="165"   width="206.25" height="12" fill="#f59e0b" rx="6"/>

    <text x="0" y="195"   fill="#f0f6fc" font-weight="bold" font-size="14">💎 Quality</text>
    <text x="330" y="195" fill="#8b949e" font-size="12" text-anchor="end">0.83</text>
    <rect x="0" y="200"   width="330" height="12" fill="#21262d" rx="6"/>
    <rect x="0" y="200"   width="274.0546875000003" height="12" fill="#a855f7" rx="6"/>
  </g>

  <!-- Footer -->
  <g transform="translate(315, 368)">
    <text x="0" y="0" text-anchor="middle" fill="#f0f6fc" font-size="13" font-weight="bold">PET STATUS:</text>
    <text x="0" y="18" text-anchor="middle" fill="#8b949e" font-size="11">
      Tier: ELDER • XP Mult: 0.25x
    </text>
  </g>
  <g transform="translate(315, 400)">
    <text x="0" y="0" text-anchor="middle" fill="#f0f6fc" font-size="13">
      🗓️ 13d streak • 📊 470 commits • ⭐ 605 stars • 🐛 4 issues closed
    </text>
    <text x="0" y="18" text-anchor="middle" fill="#8b949e" font-size="10">🐛 closed=4 • ratio=0.67 • score=1.20</text>
  </g>
  <text x="315" y="445" text-anchor="middle" fill="#22cc66" font-size="11">✅ quality_curator</text>
  <text x="315" y="465" text-anchor="middle" fill="#8b949e" font-size="11">
    2026-03-04 13:51 UTC • Python 🐍
  </text>
</svg>