<svg width="600" height="450" xmlns="http://www.w3.org/2000/svg">
      <!-- Hintergrund -->
      <rect width="600" height="450" fill="#0d1117" rx="15"/>
      <rect x="20" y="20" width="560" height="410" fill="#161b22" rx="12" stroke="#30363d" stroke-width="1"/>
      
      <!-- Header Bereich -->
      
    <text x="300" y="50" text-anchor="middle" fill="#f0f6fc" font-family="Arial, sans-serif" font-size="16" font-weight="bold">
        CODEY Level 2 - ELDER
    </text>
    
      
    <circle cx="50" cy="45" r="18" fill="#f59e0b" opacity="0.9"/>
    <text x="50" y="51" text-anchor="middle" font-size="16" fill="#f0f6fc">🧙‍♂️</text>
    
      
      
      
            <circle cx="530" cy="45" r="15" fill="#21262d" stroke="#f59e0b" stroke-width="1.5" opacity="0.8"/>
            <text x="530" y="50" text-anchor="middle" font-size="14" fill="#f0f6fc">🧙‍♂️</text>
            
            <circle cx="570" cy="45" r="15" fill="#21262d" stroke="#f59e0b" stroke-width="1.5" opacity="0.8"/>
            <text x="570" y="50" text-anchor="middle" font-size="14" fill="#f0f6fc">👑</text>
            
            <circle cx="610" cy="45" r="15" fill="#21262d" stroke="#f59e0b" stroke-width="1.5" opacity="0.8"/>
            <text x="610" y="50" text-anchor="middle" font-size="14" fill="#f0f6fc">💎</text>
            
      
      <!-- Avatar Bereich - zentriert und mit Abstand -->
      <g transform="translate(120, 140)">
        <!-- Pet Avatar -->
        <circle cx="0" cy="0" r="55" fill="#21262d" stroke="#f59e0b" stroke-width="3"/>
        <text x="0" y="15" text-anchor="middle" font-size="70" font-family="Arial, sans-serif">🐲</text>
        
        <!-- Mood Indicator -->
        <circle cx="0" cy="80" r="22" fill="#21262d" stroke="#f59e0b" stroke-width="1.5"/>
        <text x="0" y="87" text-anchor="middle" font-size="18">🤯</text>
        
        <!-- Status Info -->
        <text x="0" y="115" text-anchor="middle" fill="#8b949e" font-family="Arial, sans-serif" font-size="10">
            Overwhelmed • 9.6y GitHub
        </text>
      </g>
      
      <!-- Stats Balken - kleiner und besser positioniert -->
      <g transform="translate(240, 100)">
        <!-- Kürzere Balken für besseres Verhältnis -->
        <text x="0" y="20" fill="#f0f6fc" font-family="Arial, sans-serif" font-size="12" font-weight="bold">❤️ Health</text>
        <text x="250" y="20" text-anchor="end" fill="#8b949e" font-family="Arial, sans-serif" font-size="10">80%</text>
        <rect x="0" y="25" width="250" height="8" fill="#21262d" rx="4"/>
        <rect x="0" y="25" width="200.0" height="8" fill="#f85149" rx="4"/>
        
        <text x="0" y="50" fill="#f0f6fc" font-family="Arial, sans-serif" font-size="12" font-weight="bold">🍖 Hunger</text>
        <text x="250" y="50" text-anchor="end" fill="#8b949e" font-family="Arial, sans-serif" font-size="10">85%</text>
        <rect x="0" y="55" width="250" height="8" fill="#21262d" rx="4"/>
        <rect x="0" y="55" width="212.5" height="8" fill="#ffa657" rx="4"/>
        
        <text x="0" y="80" fill="#f0f6fc" font-family="Arial, sans-serif" font-size="12" font-weight="bold">😊 Happiness</text>
        <text x="250" y="80" text-anchor="end" fill="#8b949e" font-family="Arial, sans-serif" font-size="10">0%</text>
        <rect x="0" y="85" width="250" height="8" fill="#21262d" rx="4"/>
        <rect x="0" y="85" width="0.0" height="8" fill="#a855f7" rx="4"/>
        
        <text x="0" y="110" fill="#f0f6fc" font-family="Arial, sans-serif" font-size="12" font-weight="bold">⚡ Energy</text>
        <text x="250" y="110" text-anchor="end" fill="#8b949e" font-family="Arial, sans-serif" font-size="10">155%</text>
        <rect x="0" y="115" width="250" height="8" fill="#21262d" rx="4"/>
        <rect x="0" y="115" width="250" height="8" fill="#3fb950" rx="4"/>
        
        <text x="0" y="140" fill="#f0f6fc" font-family="Arial, sans-serif" font-size="12" font-weight="bold">👥 Social</text>
        <text x="250" y="140" text-anchor="end" fill="#8b949e" font-family="Arial, sans-serif" font-size="10">1.25</text>
        <rect x="0" y="145" width="250" height="8" fill="#21262d" rx="4"/>
        <rect x="0" y="145" width="156.25" height="8" fill="#f59e0b" rx="4"/>
        
        <text x="0" y="170" fill="#f0f6fc" font-family="Arial, sans-serif" font-size="12" font-weight="bold">💎 Quality</text>
        <text x="250" y="170" text-anchor="end" fill="#8b949e" font-family="Arial, sans-serif" font-size="10">0.80</text>
        <rect x="0" y="175" width="250" height="8" fill="#21262d" rx="4"/>
        <rect x="0" y="175" width="200.00000000000009" height="8" fill="#a855f7" rx="4"/>
      </g>
      
      <!-- Footer Stats - sauber ausgerichtet -->
      <g transform="translate(300, 350)">
        <text x="0" y="0" text-anchor="middle" fill="#f0f6fc" font-family="Arial, sans-serif" font-size="11" font-weight="bold">
          🗓️ 15 day streak • 📊 180 commits • ⭐ 370 stars
        </text>
      </g>
      
      <!-- Brutal Status Footer -->
      <g transform="translate(300, 370)">
        <text x="0" y="0" text-anchor="middle" fill="#f0f6fc" font-family="Arial, sans-serif" font-size="10" font-weight="bold">
          🔥 BRUTAL STATUS: ELDER • XP: 0.25x
        </text>
        <text x="0" y="15" text-anchor="middle" fill="#8b949e" font-family="Arial, sans-serif" font-size="9">
          Penalties: quality_curator • Lang: unknown
        </text>
      </g>
      
      <!-- Bottom Footer -->
      <text x="300" y="395" text-anchor="middle" fill="#8b949e" font-family="Arial, sans-serif" font-size="9">
        Last Update: 2025-09-22 12:54 UTC
      </text>
      
    </svg>